<svg id="Capa_1" data-name="Capa 1" xmlns="http://www.w3.org/2000/svg" viewBox="0 0 282.17 194.65"><defs><style>.cls-1,.cls-2,.cls-3{fill:#eb5d96;}.cls-2{font-size:40.83px;letter-spacing:0.07em;}.cls-2,.cls-3{font-family:FranklinGothic-MediumCond, Franklin Gothic Medium Cond;font-weight:500;}.cls-3{font-size:57.49px;letter-spacing:0.21em;}.cls-4{letter-spacing:0.2em;}</style></defs><path class="cls-1" d="M82.56,25a59.49,59.49,0,0,1-1.18,6.73A22.1,22.1,0,0,1,74.22,42.4c-5.08,4.37-10.55,8.22-16.95,10.3A82,82,0,0,1,45.1,55.29a54.68,54.68,0,0,0-16.24,5.54,40.9,40.9,0,0,0-11.33,8.22,32.4,32.4,0,0,0-9,17.79,21.53,21.53,0,0,0,.91,10.85c.13.35.23.7.39,1.17-1.67-1.53-4-6.31-4.38-9C4,79.38,6.08,69.73,12.85,61.34A31.11,31.11,0,0,1,29.66,50.62a48.39,48.39,0,0,1,11.68-1.38c4.5-.05,9-.12,13.38-1.37,9.67-2.79,17-8.41,20.71-18a15,15,0,0,0,1.11-6.65c0-.35-.11-.69-.17-1l-.32,0c-.2.54-.45,1.06-.61,1.61-2.28,8-7.44,13.59-14.68,17.4-5.59,2.94-11.66,3.85-17.87,4-3.82.09-7.65,0-11.47,0-7.23.18-13.81,2.31-19.15,7.31C9.2,55.34,6.52,58.61,5.67,63c-.57-.9-.63-2.07,0-3.81a24.55,24.55,0,0,1,9-12.38,36.42,36.42,0,0,1,18.65-6.66c6.6-.54,12.61-2.51,17.65-6.86a49.21,49.21,0,0,0,4.82-5.26c3.12-3.61,6.67-6.57,11.31-8,6.22-1.94,11.87-.76,17,3.07a11.29,11.29,0,0,1,3.61,5.13c.22.56.45,1.12.64,1.69a4.54,4.54,0,0,0,3.08,2.93c.71.25,1.44.45,2.15.69a1.8,1.8,0,0,1,1.16,2.67,9.43,9.43,0,0,1-.55,1,1.27,1.27,0,0,0,.17,1.62A7.63,7.63,0,0,1,95.15,41c.25.8.42,1.63.67,2.43a6,6,0,0,0,.55,1,3.44,3.44,0,0,1-1.81,5.05c-1.38.61-2.78,1.18-4.15,1.81-3.12,1.45-3.76,5.68-3.09,7.82a3.61,3.61,0,0,0,3.46,2.63,28.36,28.36,0,0,0,11.86-2.06,60.79,60.79,0,0,0,16.48-9.15,6.47,6.47,0,0,0,2.66-6.89A71.52,71.52,0,0,0,117,27.06a8,8,0,0,0-5.52-4.78c-1.39-.35-2.77-.78-4.12-1.26a4.83,4.83,0,0,1-2.69-7.14A2.66,2.66,0,0,0,105,11.5a2.68,2.68,0,0,1,1.3-3.3c1.08-.64,2.21-1.14,3.5-.37,1.8-1.54,3-1.5,3.84.19a2.28,2.28,0,0,1,3.45-.9A8.47,8.47,0,0,1,119.18,9c1.29,1.67,2.55,3.38,3.68,5.17,3.37,5.34,6.77,10.65,10,16.1a49.69,49.69,0,0,1,6.1,16.61,7.16,7.16,0,0,1-1.64,5.93c-4,4.93-8.15,9.69-13.31,13.41-3.8,2.73-7.79,5.2-11.69,7.8-1.5,1-3,2-4.48,3.07-1.15.86-1.12,1-.2,2.16s1.81,2.14,2.63,3.27A12.18,12.18,0,0,1,109.61,98a38.17,38.17,0,0,1-3.39,3.34,4.31,4.31,0,0,0-1.56,3.46c0,5.41,0,10.82-.21,16.22a104.16,104.16,0,0,1-2.71,18.24,90,90,0,0,1-8,22.81,104,104,0,0,1-11.45,17.51c-2,2.45-4.49,4.55-6.75,6.81l-.44-.34c.38-.68.71-1.4,1.15-2,1.49-2.18,3-4.33,4.54-6.51a116.23,116.23,0,0,0,8.84-15.69A109.22,109.22,0,0,0,98,136.37a111.46,111.46,0,0,0,2.24-27.64c-.09-2.11,0-4.23.06-6.34a4.11,4.11,0,0,1,1.88-3.21,15.58,15.58,0,0,0,4.68-4.88c2.1-3.82,1.49-7.92-1.72-11.5-1.42-1.58-3-3-4.38-4.61A24.19,24.19,0,0,1,99.23,76c1.68-.47,3.35-.62,4.68-1.37,3.36-1.88,6.59-4,9.82-6.09a84.69,84.69,0,0,0,16.76-13.66c1.22-1.33,2.27-2.82,3.37-4.26a5.29,5.29,0,0,0,.72-4.42c-1.25-6.94-4.11-13.25-7.49-19.36q-3.36-6.1-6.85-12.14a24.62,24.62,0,0,0-3-4.05c0,.8,0,1.61,0,2.41S117,14.64,116,14.74s-1.19-.65-1.3-1.46A24.79,24.79,0,0,0,113.77,9c0,.83.13,1.66.14,2.49a13.44,13.44,0,0,1-.14,2.46c-.16.81-.81,1.09-1.63,1.09s-.85-.59-1-1.12l-1.27-4.18h-.39a5.79,5.79,0,0,0-.14,1.74A3,3,0,0,1,108,15a1.36,1.36,0,0,0,.37,2.53c1.85.65,3.74,1.18,5.61,1.77a8.36,8.36,0,0,1,5,4.24,62.59,62.59,0,0,1,6.77,20.2,8.4,8.4,0,0,1-2.19,7.37c-3.75,4.21-8.46,6.9-13.35,9.4a42.49,42.49,0,0,1-17.07,5,20.66,20.66,0,0,1-4.51-.3,5.35,5.35,0,0,1-4.77-4.77,25.55,25.55,0,0,1,.1-6.3c.36-2.76,2.2-4.47,4.72-5.48C90.13,48,91.6,47.53,93,46.9s1.43-.95.84-2.36c-.73-1.78-1.43-3.58-2-5.41a5.77,5.77,0,0,1,.07-2.22c.08-.72,0-1.22-.86-1.38-2.77-.52-4.35-2.33-5.3-4.89A16,16,0,0,0,82.56,25Z" transform="translate(-5.02 -6.68)"/><path class="cls-1" d="M34.18,153.17a29.14,29.14,0,0,1-.27-3.07,132.09,132.09,0,0,1,2.5-23.53c2-9.74,5.15-19.09,8.43-28.42,1.65-4.71,3.57-9.32,5.49-13.92A47.82,47.82,0,0,1,63.46,66.67a15.77,15.77,0,0,0,2.09-2.23c.23-.3.19-.82.28-1.25a3.41,3.41,0,0,0-1.22.14c-2.7,1.52-5.47,2.93-8,4.68a51,51,0,0,1-18.53,7.88A72.78,72.78,0,0,0,27.64,79,19.56,19.56,0,0,0,16.77,89.2c-1.14,2.36-1.12,4.9-1.16,7.43,0,.29,0,.57,0,.86l-.32.14a12.2,12.2,0,0,1-1-2.22c-1.65-7.27-.24-13.83,4.87-19.38A52,52,0,0,1,37.05,63.3a121.08,121.08,0,0,1,14.1-4.49c7.2-2.06,14.13-4.64,20-9.46.87-.72,1.67-1.53,2.49-2.31.52-.5,1-1.06,1.55-1.5a1.42,1.42,0,0,1,1.1-.33c.25.11.42.66.45,1,.21,2.43-.65,4.68-1.28,7-1.84,6.64-5.65,12-10.45,16.86-1.91,1.92-3.67,4-5.42,6.1a35.7,35.7,0,0,0-5.45,10.13c-3,7.51-5.89,15-8.56,22.67-3.2,9.12-6.2,18.32-8,27.85-.83,4.45-1.44,8.93-2.19,13.39-.17,1-.51,2-.77,3Z" transform="translate(-5.02 -6.68)"/><path class="cls-1" d="M66,94.23c-8.29,15.65-16.13,31.44-26.65,45.7.4-1,.74-2,1.21-3,2.28-4.69,4.6-9.36,6.89-14,3.8-7.77,7.55-15.57,11.41-23.3a72.46,72.46,0,0,1,4.33-7.44,18.7,18.7,0,0,1,3-3.08c.8-.74,1.54-.65,2.32.21A41.33,41.33,0,0,1,75,99.56a22.33,22.33,0,0,1,2.24,10.53,13.14,13.14,0,0,1-3.12,8.32c-2.39,2.78-4.9,5.46-7.49,8-5.62,5.62-10.65,11.69-14.19,18.85a79,79,0,0,0-6.15,18.18A111.06,111.06,0,0,0,44,181.57a8.4,8.4,0,0,1-.71,2.14c-.39-.63-1.06-1.24-1.12-1.9a95.8,95.8,0,0,1-.57-10.16,63.81,63.81,0,0,1,17.7-43.83c2.8-2.92,5.61-5.85,8.66-8.5,5.06-4.41,6-9.77,4-15.83A20,20,0,0,0,67,95.12C66.7,94.84,66.38,94.58,66,94.23Z" transform="translate(-5.02 -6.68)"/><text class="cls-2" transform="translate(115.41 127.19)">CUMBRE</text><text class="cls-3" transform="translate(116.91 177.03)">S<tspan class="cls-4" x="41.64" y="0">TEM</tspan></text></svg>